<mxfile host="app.diagrams.net" modified="2023-10-26T15:46:27.191Z" agent="Mozilla/5.0 (Windows NT 10.0; Win64; x64) AppleWebKit/537.36 (KHTML, like Gecko) Chrome/118.0.0.0 Safari/537.36" etag="M9aH1drE3Vob3EqfY06p" version="22.0.8" type="device">
  <diagram name="Page-1" id="qkhhkq933eoXBRdJVtW1">
    <mxGraphModel dx="1235" dy="638" grid="1" gridSize="10" guides="1" tooltips="1" connect="1" arrows="1" fold="1" page="1" pageScale="1" pageWidth="2336" pageHeight="1654" math="0" shadow="0">
      <root>
        <mxCell id="0" />
        <mxCell id="1" parent="0" />
        <mxCell id="f8K3FQcOiYRWmzTmGtX4-1" value="" style="rounded=0;whiteSpace=wrap;html=1;" vertex="1" parent="1">
          <mxGeometry x="270" y="70" width="540" height="280" as="geometry" />
        </mxCell>
        <mxCell id="f8K3FQcOiYRWmzTmGtX4-2" value="" style="rounded=0;whiteSpace=wrap;html=1;" vertex="1" parent="1">
          <mxGeometry x="400" y="80" width="230" height="130" as="geometry" />
        </mxCell>
        <mxCell id="f8K3FQcOiYRWmzTmGtX4-3" value="Q-Network&lt;br&gt;(Evaluation)" style="text;html=1;strokeColor=none;fillColor=none;align=center;verticalAlign=middle;whiteSpace=wrap;rounded=0;" vertex="1" parent="1">
          <mxGeometry x="410" y="60" width="210" height="90" as="geometry" />
        </mxCell>
        <mxCell id="f8K3FQcOiYRWmzTmGtX4-5" value="" style="rounded=0;whiteSpace=wrap;html=1;" vertex="1" parent="1">
          <mxGeometry x="400" y="250" width="230" height="80" as="geometry" />
        </mxCell>
        <mxCell id="f8K3FQcOiYRWmzTmGtX4-4" value="Target Q-Network" style="text;html=1;strokeColor=none;fillColor=none;align=center;verticalAlign=middle;whiteSpace=wrap;rounded=0;" vertex="1" parent="1">
          <mxGeometry x="460" y="220" width="102.5" height="140" as="geometry" />
        </mxCell>
        <mxCell id="f8K3FQcOiYRWmzTmGtX4-6" value="" style="rounded=0;whiteSpace=wrap;html=1;" vertex="1" parent="1">
          <mxGeometry x="280" y="180" width="80" height="40" as="geometry" />
        </mxCell>
        <mxCell id="f8K3FQcOiYRWmzTmGtX4-7" value="Loss Function" style="text;html=1;strokeColor=none;fillColor=none;align=center;verticalAlign=middle;whiteSpace=wrap;rounded=0;" vertex="1" parent="1">
          <mxGeometry x="290" y="185" width="60" height="30" as="geometry" />
        </mxCell>
        <mxCell id="f8K3FQcOiYRWmzTmGtX4-15" value="" style="rounded=1;whiteSpace=wrap;html=1;" vertex="1" parent="1">
          <mxGeometry x="680" y="180" width="120" height="50" as="geometry" />
        </mxCell>
        <mxCell id="f8K3FQcOiYRWmzTmGtX4-16" value="Replay Buffer" style="text;html=1;strokeColor=none;fillColor=none;align=center;verticalAlign=middle;whiteSpace=wrap;rounded=0;" vertex="1" parent="1">
          <mxGeometry x="700" y="190" width="80" height="30" as="geometry" />
        </mxCell>
        <mxCell id="f8K3FQcOiYRWmzTmGtX4-21" value="" style="rounded=0;whiteSpace=wrap;html=1;fontStyle=1" vertex="1" parent="1">
          <mxGeometry x="410" y="135" width="30" height="60" as="geometry" />
        </mxCell>
        <mxCell id="f8K3FQcOiYRWmzTmGtX4-22" value="" style="rounded=0;whiteSpace=wrap;html=1;" vertex="1" parent="1">
          <mxGeometry x="460" y="135" width="30" height="60" as="geometry" />
        </mxCell>
        <mxCell id="f8K3FQcOiYRWmzTmGtX4-23" value="" style="rounded=0;whiteSpace=wrap;html=1;" vertex="1" parent="1">
          <mxGeometry x="502.5" y="135" width="30" height="60" as="geometry" />
        </mxCell>
        <mxCell id="f8K3FQcOiYRWmzTmGtX4-24" value="" style="rounded=0;whiteSpace=wrap;html=1;" vertex="1" parent="1">
          <mxGeometry x="544" y="135" width="30" height="60" as="geometry" />
        </mxCell>
        <mxCell id="f8K3FQcOiYRWmzTmGtX4-25" value="" style="rounded=0;whiteSpace=wrap;html=1;" vertex="1" parent="1">
          <mxGeometry x="590" y="135" width="30" height="65" as="geometry" />
        </mxCell>
        <mxCell id="f8K3FQcOiYRWmzTmGtX4-26" value="I&lt;br style=&quot;font-size: 10px;&quot;&gt;N&lt;br style=&quot;font-size: 10px;&quot;&gt;P&lt;br style=&quot;font-size: 10px;&quot;&gt;U&lt;br style=&quot;font-size: 10px;&quot;&gt;T" style="text;html=1;strokeColor=none;fillColor=none;align=center;verticalAlign=middle;whiteSpace=wrap;rounded=0;fontSize=10;" vertex="1" parent="1">
          <mxGeometry x="412.5" y="150" width="25" height="30" as="geometry" />
        </mxCell>
        <mxCell id="f8K3FQcOiYRWmzTmGtX4-27" value="R&lt;br&gt;E&lt;br&gt;L&lt;br&gt;U" style="text;html=1;strokeColor=none;fillColor=none;align=center;verticalAlign=middle;whiteSpace=wrap;rounded=0;fontSize=10;" vertex="1" parent="1">
          <mxGeometry x="462.5" y="150" width="25" height="30" as="geometry" />
        </mxCell>
        <mxCell id="f8K3FQcOiYRWmzTmGtX4-28" value="R&lt;br&gt;E&lt;br&gt;L&lt;br&gt;U" style="text;html=1;strokeColor=none;fillColor=none;align=center;verticalAlign=middle;whiteSpace=wrap;rounded=0;fontSize=10;" vertex="1" parent="1">
          <mxGeometry x="507.5" y="150" width="25" height="30" as="geometry" />
        </mxCell>
        <mxCell id="f8K3FQcOiYRWmzTmGtX4-29" value="T&lt;br&gt;A&lt;br&gt;N&lt;br&gt;H" style="text;html=1;strokeColor=none;fillColor=none;align=center;verticalAlign=middle;whiteSpace=wrap;rounded=0;fontSize=10;" vertex="1" parent="1">
          <mxGeometry x="549" y="150" width="25" height="30" as="geometry" />
        </mxCell>
        <mxCell id="f8K3FQcOiYRWmzTmGtX4-30" value="O&lt;br style=&quot;font-size: 9px;&quot;&gt;U&lt;br style=&quot;font-size: 9px;&quot;&gt;T&lt;br style=&quot;font-size: 9px;&quot;&gt;P&lt;br style=&quot;font-size: 9px;&quot;&gt;U&lt;br style=&quot;font-size: 9px;&quot;&gt;T" style="text;html=1;strokeColor=none;fillColor=none;align=center;verticalAlign=middle;whiteSpace=wrap;rounded=0;fontSize=9;" vertex="1" parent="1">
          <mxGeometry x="595" y="153" width="25" height="30" as="geometry" />
        </mxCell>
        <mxCell id="f8K3FQcOiYRWmzTmGtX4-34" value="" style="endArrow=classic;html=1;rounded=0;entryX=0.043;entryY=0.625;entryDx=0;entryDy=0;entryPerimeter=0;" edge="1" parent="1" target="f8K3FQcOiYRWmzTmGtX4-5">
          <mxGeometry width="50" height="50" relative="1" as="geometry">
            <mxPoint x="320" y="220" as="sourcePoint" />
            <mxPoint x="370" y="170" as="targetPoint" />
            <Array as="points">
              <mxPoint x="320" y="300" />
            </Array>
          </mxGeometry>
        </mxCell>
        <mxCell id="f8K3FQcOiYRWmzTmGtX4-35" value="" style="endArrow=classic;html=1;rounded=0;entryX=0;entryY=0.5;entryDx=0;entryDy=0;" edge="1" parent="1" target="f8K3FQcOiYRWmzTmGtX4-2">
          <mxGeometry width="50" height="50" relative="1" as="geometry">
            <mxPoint x="320" y="180" as="sourcePoint" />
            <mxPoint x="370" y="130" as="targetPoint" />
            <Array as="points">
              <mxPoint x="320" y="145" />
            </Array>
          </mxGeometry>
        </mxCell>
        <mxCell id="f8K3FQcOiYRWmzTmGtX4-36" value="" style="endArrow=classic;html=1;rounded=0;entryX=1;entryY=0.5;entryDx=0;entryDy=0;" edge="1" parent="1" target="f8K3FQcOiYRWmzTmGtX4-2">
          <mxGeometry width="50" height="50" relative="1" as="geometry">
            <mxPoint x="730" y="180" as="sourcePoint" />
            <mxPoint x="780" y="130" as="targetPoint" />
            <Array as="points">
              <mxPoint x="730" y="145" />
            </Array>
          </mxGeometry>
        </mxCell>
        <mxCell id="f8K3FQcOiYRWmzTmGtX4-37" value="" style="endArrow=classic;html=1;rounded=0;entryX=1;entryY=0.5;entryDx=0;entryDy=0;" edge="1" parent="1" target="f8K3FQcOiYRWmzTmGtX4-5">
          <mxGeometry width="50" height="50" relative="1" as="geometry">
            <mxPoint x="730" y="230" as="sourcePoint" />
            <mxPoint x="780" y="180" as="targetPoint" />
            <Array as="points">
              <mxPoint x="730" y="290" />
            </Array>
          </mxGeometry>
        </mxCell>
        <mxCell id="f8K3FQcOiYRWmzTmGtX4-38" value="" style="endArrow=classic;html=1;rounded=0;entryX=0.004;entryY=0.647;entryDx=0;entryDy=0;entryPerimeter=0;" edge="1" parent="1" target="f8K3FQcOiYRWmzTmGtX4-27">
          <mxGeometry width="50" height="50" relative="1" as="geometry">
            <mxPoint x="440" y="170" as="sourcePoint" />
            <mxPoint x="490" y="120" as="targetPoint" />
          </mxGeometry>
        </mxCell>
        <mxCell id="f8K3FQcOiYRWmzTmGtX4-39" value="" style="endArrow=classic;html=1;rounded=0;entryX=0.004;entryY=0.647;entryDx=0;entryDy=0;entryPerimeter=0;" edge="1" parent="1">
          <mxGeometry width="50" height="50" relative="1" as="geometry">
            <mxPoint x="487.5" y="168.5" as="sourcePoint" />
            <mxPoint x="510.5" y="167.5" as="targetPoint" />
          </mxGeometry>
        </mxCell>
        <mxCell id="f8K3FQcOiYRWmzTmGtX4-40" value="" style="endArrow=classic;html=1;rounded=0;entryX=0.004;entryY=0.647;entryDx=0;entryDy=0;entryPerimeter=0;" edge="1" parent="1">
          <mxGeometry width="50" height="50" relative="1" as="geometry">
            <mxPoint x="528.5" y="168" as="sourcePoint" />
            <mxPoint x="551.5" y="167" as="targetPoint" />
          </mxGeometry>
        </mxCell>
        <mxCell id="f8K3FQcOiYRWmzTmGtX4-41" value="" style="endArrow=classic;html=1;rounded=0;entryX=0.004;entryY=0.647;entryDx=0;entryDy=0;entryPerimeter=0;" edge="1" parent="1">
          <mxGeometry width="50" height="50" relative="1" as="geometry">
            <mxPoint x="574" y="168.5" as="sourcePoint" />
            <mxPoint x="597" y="167.5" as="targetPoint" />
          </mxGeometry>
        </mxCell>
        <mxCell id="f8K3FQcOiYRWmzTmGtX4-42" value="" style="endArrow=classic;html=1;rounded=0;" edge="1" parent="1">
          <mxGeometry width="50" height="50" relative="1" as="geometry">
            <mxPoint x="810" y="210" as="sourcePoint" />
            <mxPoint x="1040" y="210" as="targetPoint" />
          </mxGeometry>
        </mxCell>
        <mxCell id="f8K3FQcOiYRWmzTmGtX4-43" value="" style="endArrow=classic;html=1;rounded=0;entryX=1;entryY=0.75;entryDx=0;entryDy=0;" edge="1" parent="1" target="f8K3FQcOiYRWmzTmGtX4-1">
          <mxGeometry width="50" height="50" relative="1" as="geometry">
            <mxPoint x="1040" y="280" as="sourcePoint" />
            <mxPoint x="1090" y="230" as="targetPoint" />
          </mxGeometry>
        </mxCell>
        <mxCell id="f8K3FQcOiYRWmzTmGtX4-44" value="Action" style="text;html=1;strokeColor=none;fillColor=none;align=center;verticalAlign=middle;whiteSpace=wrap;rounded=0;" vertex="1" parent="1">
          <mxGeometry x="850" y="183" width="60" height="30" as="geometry" />
        </mxCell>
        <mxCell id="f8K3FQcOiYRWmzTmGtX4-45" value="Reward" style="text;html=1;strokeColor=none;fillColor=none;align=center;verticalAlign=middle;whiteSpace=wrap;rounded=0;" vertex="1" parent="1">
          <mxGeometry x="850" y="250" width="60" height="30" as="geometry" />
        </mxCell>
      </root>
    </mxGraphModel>
  </diagram>
</mxfile>
